<?xml version="1.0" encoding="UTF-8"?>
<svg xmlns="http://www.w3.org/2000/svg" id="Camada_1" data-name="Camada 1" viewBox="0 0 900 900" style="background: transparent;">
  <defs>
    <style>
      .cls-1, .cls-2 {
        fill: #fff;
      }

      .cls-3 {
        fill: none;
      }

      .cls-2 {
        stroke: #fff;
        stroke-linecap: round;
        stroke-miterlimit: 10;
      }
    </style>
  </defs>
  
  
  <path class="cls-1" d="M532.44,323.84l-159.75,96.03c.54,1.06.75,2.11.79,3.3.87,26.9-.73,53.98-.05,80.89l16.51,9.53s.84.04.88-8.62c.06-13.72-1.57-35.28-.9-66.04.04-1.81-.41-10.15.33-11.06l159.27-93.43,56.43,34.78-155.94,99.01-.02,1.44-1.9,87.53c.31,5.35-.26,12.72,0,20.54.47,14.19-.24,30.04.31,44.15.11,2.73,2.6,8.15-2.87,4.85-1.39-1.67-5.1-2.07-8.84-5.62-1.45-1.38-4.47-2.58-6.02-3.87-2.34-1.95-2-1.17-4.18-2.41-2.76-1.83-3.81-2.13-6.34-3.97-.77-.56-1.76-.88-2.36-1.38-.8-.67-5.73-3.89-7.51-4.88-3.38-1.87-6.32-4.37-9.86-5.94l-.85-.4-1-.7c-1.36-.55-1.61-.91-1.71-.97-.35-.19-.17-.74-1-.94-2.73-.67-6.59-4.69-9.55-5.71l-1.17-.56c-1.01-.11-.22-.21-1.23-.5-2.62-.76-18.99-11.89-23.04-14.33-19.51-11.79-39.3-24.4-59.05-36.24-2.43-1.45-5.16-2.75-7.76-3.86v-166.26s155.67-96.01,155.67-96.01l82.71,51.63Z"/>
  <line class="cls-2" x1="447.22" y1="627.62" x2="605.94" y2="545.42"/>
  <line class="cls-2" x1="605.62" y1="369.43" x2="605.94" y2="545.42"/>
  <line class="cls-2" x1="294.62" y1="533.71" x2="447.22" y2="627.62"/>
  <line class="cls-2" x1="448.4" y1="466.41" x2="448.4" y2="626.85"/>
  <line class="cls-2" x1="448.79" y1="468.24" x2="605.62" y2="369.43"/>
</svg>